# xmcd
#
# Track frame offsets:
#	150
#	18038
#	34147
#	53101
#	70323
#	86397
#	99285
#	114836
#	131610
#	145452
#	161653
#	181086
#	202160
#	216736
#	233138
#
# Disc length: 3242 seconds
# Revision: 0
# Processed by: cddbd v1.5.2PL0 Copyright (c) Steve Scherf et al.
# Submitted via: dBpowerAMP V12.0
#
DISCID=cf0ca80f
DTITLE=Gina Jeffreys - Beautiful Tangle
DYEAR=2019
DGENRE=Country
TTITLE0=Cash
TTITLE1=Do That
TTITLE2=Gypsy Soul
TTITLE3=He Still Wants To Dance With Her
TTITLE4=Vintage
TTITLE5=Unravel
TTITLE6=Chase the Girls Away
TTITLE7=Milestones
TTITLE8=Ferris Wheel Ride
TTITLE9=Exhale
TTITLE10=Time
TTITLE11=Room at the Table
TTITLE12=Rattles My Bones
TTITLE13=Gravity
TTITLE14=Traffic Jam
EXTD=
EXTT0=
EXTT1=
EXTT2=
EXTT3=
EXTT4=
EXTT5=
EXTT6=
EXTT7=
EXTT8=
EXTT9=
EXTT10=
EXTT11=
EXTT12=
EXTT13=
EXTT14=
PLAYORDER=
